<svg xmlns="http://www.w3.org/2000/svg" version="1.1" xmlns:xlink="http://www.w3.org/1999/xlink" xmlns:svgjs="http://svgjs.dev/svgjs" width="1500" height="1500" viewBox="0 0 1500 1500"><rect width="1500" height="1500" fill="#ffffff"></rect><g transform="matrix(0.6666666666666666,0,0,0.6666666666666666,249.39393939393932,623.4164661285123)"><svg viewBox="0 0 396 100" data-background-color="#ffffff" preserveAspectRatio="xMidYMid meet" height="378" width="1500" xmlns="http://www.w3.org/2000/svg" xmlns:xlink="http://www.w3.org/1999/xlink"><g id="tight-bounds" transform="matrix(1,0,0,1,0.24000000000003752,0.23156106011416)"><svg viewBox="0 0 395.5199999999999 99.5368778797717" height="99.5368778797717" width="395.5199999999999"><g><svg viewBox="0 0 395.5199999999999 99.5368778797717" height="99.5368778797717" width="395.5199999999999"><g><svg viewBox="0 0 654.5408260719289 164.7222650486612" height="99.5368778797717" width="395.5199999999999"><g transform="matrix(1,0,0,1,257.04322607192904,36.0293608834698)"><svg viewBox="0 0 397.4975999999999 92.6635432817216" height="92.6635432817216" width="397.4975999999999"><g id="textblocktransform"><svg viewBox="0 0 397.4975999999999 92.6635432817216" height="92.6635432817216" width="397.4975999999999" id="textblock"><g><rect width="397.4975999999999" height="4.3508689418769055" x="0" y="53.37131230902354" fill="#1e55b3" opacity="1" stroke-width="0" stroke="transparent" fill-opacity="1" class="rect-qz-0" data-fill-palette-color="primary" rx="1%" id="qz-0" data-palette-color="#1e55b3"></rect></g><g transform="matrix(1,0,0,1,0.9887999999999693,0)"><svg viewBox="0 0 395.52 48.245943136655455" height="48.245943136655455" width="395.52"><g transform="matrix(1,0,0,1,0,0)"><svg width="395.52" viewBox="1.27 -37.35 319.41 38.96" height="48.245943136655455" data-palette-color="#1e55b3"><path d="M22.46-35.84L22.46-35.84Q22.22-32.86 22.27-29.91 22.31-26.95 22.22-24.02L22.22-24.02 16.8-24.22Q16.75-22.51 16.72-20.85 16.7-19.19 16.7-17.48L16.7-17.48Q16.7-15.43 16.72-13.45 16.75-11.47 16.8-9.42L16.8-9.42 21.78-9.33Q21.68-7.91 21.68-6.45 21.68-4.98 21.68-3.52L21.68-3.52Q21.68-2.29 21.75-1.07 21.83 0.15 22.07 1.32L22.07 1.32 4.54 1.61Q4.54-0.78 4.49-3.1 4.44-5.42 4.3-7.81L4.3-7.81 7.47-7.86Q7.23-12.45 6.91-16.94 6.59-21.44 6.25-25.98L6.25-25.98 1.61-26.56Q1.51-28.61 1.44-30.64 1.37-32.67 1.27-34.72L1.27-34.72Q6.59-34.91 11.84-35.18 17.09-35.45 22.46-35.84ZM63.72-19.34L63.72-19.34Q63.72-18.95 63.72-18.58 63.72-18.21 63.67-17.82L63.67-17.82Q63.62-17.14 63.43-15.58 63.23-14.01 62.89-12.33 62.55-10.64 62.06-9.23 61.57-7.81 60.98-7.42L60.98-7.42Q60.69-7.23 59.01-7.08 57.32-6.93 54.9-6.79 52.49-6.64 49.66-6.54 46.82-6.45 44.26-6.37 41.7-6.3 39.77-6.25 37.84-6.2 37.2-6.2L37.2-6.2Q36.91-6.2 36.2-6.2 35.5-6.2 34.71-6.23 33.93-6.25 33.25-6.3 32.57-6.35 32.27-6.45L32.27-6.45Q31.59-6.69 30.91-7.25 30.22-7.81 29.64-8.52 29.05-9.23 28.59-9.99 28.12-10.74 27.93-11.43L27.93-11.43Q27.78-11.96 27.68-13.06 27.59-14.16 27.54-15.36 27.49-16.55 27.46-17.68 27.44-18.8 27.44-19.38L27.44-19.38Q27.44-20.31 27.49-21.95 27.54-23.58 27.78-25.29 28.02-27 28.49-28.49 28.95-29.98 29.83-30.57L29.83-30.57Q30.22-30.81 31.3-31.01 32.37-31.2 33.84-31.35 35.3-31.49 36.96-31.57 38.62-31.64 40.21-31.67 41.79-31.69 43.16-31.69 44.53-31.69 45.36-31.64L45.36-31.64Q46.09-31.59 47.46-31.57 48.83-31.54 50.51-31.49 52.19-31.45 54-31.32 55.81-31.2 57.37-31.01 58.93-30.81 60.13-30.49 61.33-30.18 61.72-29.74L61.72-29.74Q62.35-29.05 62.74-27.69 63.13-26.32 63.35-24.78 63.57-23.24 63.64-21.75 63.72-20.26 63.72-19.34ZM53.37-18.31L53.37-18.31Q53.37-18.9 53.32-19.68 53.27-20.46 53.17-21.26 53.07-22.07 52.88-22.83 52.68-23.58 52.39-24.07L52.39-24.07Q52-24.71 50.88-25.05 49.75-25.39 48.41-25.56 47.07-25.73 45.77-25.78 44.48-25.83 43.85-25.83L43.85-25.83Q43.5-25.83 42.62-25.81 41.75-25.78 40.79-25.73 39.84-25.68 39.01-25.56 38.18-25.44 37.94-25.29L37.94-25.29Q37.5-25 37.25-24.39 37.01-23.78 36.89-23.05 36.77-22.31 36.74-21.61 36.72-20.9 36.72-20.46L36.72-20.46Q36.72-20.02 36.79-18.87 36.86-17.72 36.98-16.43 37.11-15.14 37.3-14.06 37.5-12.99 37.79-12.7L37.79-12.7Q38.13-12.3 39.08-12.06 40.04-11.82 41.14-11.65 42.23-11.47 43.26-11.4 44.28-11.33 44.72-11.33L44.72-11.33Q45.51-11.33 46.58-11.38 47.65-11.43 48.75-11.62 49.85-11.82 50.83-12.16 51.8-12.5 52.39-13.09L52.39-13.09Q52.73-13.43 52.93-14.11 53.12-14.79 53.22-15.58 53.32-16.36 53.34-17.11 53.37-17.87 53.37-18.31ZM97.26-14.5L97.26-14.5Q97.26-13.18 97.26-11.84 97.26-10.5 97.16-9.18L97.16-9.18 86.27-8.5Q86.47-11.04 86.59-13.53 86.71-16.02 86.71-18.6L86.71-18.6Q86.71-18.85 86.71-19.43 86.71-20.02 86.66-20.68 86.62-21.34 86.57-21.92 86.52-22.51 86.47-22.75L86.47-22.75Q86.23-23.44 85.96-23.93 85.69-24.41 85.32-24.71 84.96-25 84.42-25.12 83.88-25.24 83.1-25.24L83.1-25.24Q82.51-25.24 81.61-25.15 80.71-25.05 79.78-24.85 78.85-24.66 78.02-24.37 77.19-24.07 76.85-23.68L76.85-23.68 76.75-9.28Q76.66-9.47 76.19-9.47 75.73-9.47 75.53-9.47L75.53-9.47Q74.07-9.47 72.5-9.35 70.94-9.23 69.48-9.03L69.48-9.03Q68.84-14.79 68.35-20.51 67.87-26.22 67.23-31.98L67.23-31.98Q68.21-32.03 69.18-32.06 70.16-32.08 71.14-32.08L71.14-32.08Q72.41-32.08 73.7-32.01 75-31.93 76.26-31.88L76.26-31.88 76.61-28.13Q77.97-30.37 80.32-31.88 82.66-33.4 85.35-33.4L85.35-33.4Q86.71-33.4 88.18-33.25 89.64-33.11 90.99-32.67 92.33-32.23 93.53-31.45 94.72-30.66 95.55-29.44L95.55-29.44Q95.94-28.86 96.21-27.71 96.48-26.56 96.67-25.12 96.87-23.68 96.99-22.07 97.11-20.46 97.16-18.99 97.21-17.53 97.24-16.33 97.26-15.14 97.26-14.5ZM135.44-2.49L135.44-2.49 127.19-2.15 126.6-7.08Q125.68-5.81 124.38-4.93 123.09-4.05 121.6-3.52 120.11-2.98 118.52-2.76 116.94-2.54 115.42-2.54L115.42-2.54Q114.25-2.54 112.52-2.73 110.78-2.93 109-3.3 107.22-3.66 105.71-4.25 104.19-4.83 103.51-5.62L103.51-5.62Q102.97-6.2 102.7-7.5 102.43-8.79 102.34-10.25 102.24-11.72 102.24-13.09 102.24-14.45 102.24-15.28L102.24-15.28Q102.24-18.95 102.53-22.51 102.82-26.07 103.36-29.59L103.36-29.59Q104.73-29.74 106.29-29.74L106.29-29.74Q107.56-29.74 108.83-29.57 110.1-29.39 111.37-29.15L111.37-29.15Q111.37-28.91 111.42-27.73 111.47-26.56 111.54-24.95 111.61-23.34 111.71-21.51 111.81-19.68 111.93-18.12 112.05-16.55 112.22-15.45 112.39-14.36 112.59-14.26L112.59-14.26Q113.32-13.82 114.2-13.77 115.08-13.72 115.91-13.72L115.91-13.72Q116.5-13.72 117.74-13.79 118.99-13.87 120.31-14.04 121.62-14.21 122.75-14.48 123.87-14.75 124.26-15.14L124.26-15.14Q124.41-15.28 124.48-16.06 124.55-16.85 124.58-17.77 124.6-18.7 124.63-19.51 124.65-20.31 124.65-20.46L124.65-20.46Q124.65-22.66 124.55-24.8 124.46-26.95 124.36-29.15L124.36-29.15 133.83-29.59Q134.12-26.17 134.37-22.78 134.61-19.38 135-15.97L135-15.97Q135.15-14.84 135.17-13.67 135.2-12.5 135.25-11.33L135.25-11.33Q135.34-9.13 135.37-6.93 135.39-4.74 135.44-2.49ZM164.49-8.64L164.49-8.64 163.66-0.05Q162.1 0.05 160.54 0.12 158.97 0.2 157.41 0.2L157.41 0.2Q156.58 0.2 155.21 0.15 153.85 0.1 152.38-0.02 150.92-0.15 149.6-0.37 148.28-0.59 147.5-0.93L147.5-0.93Q146.33-1.46 145.57-2.34 144.81-3.22 144.33-4.27 143.84-5.32 143.54-6.52 143.25-7.71 143.11-8.89L143.11-8.89Q142.96-10.01 142.89-11.3 142.81-12.6 142.79-13.96 142.76-15.33 142.76-16.63 142.76-17.92 142.76-19.04L142.76-19.04 142.76-20.51 139.74-20.51Q139.93-22.71 139.96-24.85 139.98-27 140.18-29.2L140.18-29.2 143.11-29.1 143.11-36.33Q145.89-35.79 148.65-35.77 151.41-35.74 154.19-35.55L154.19-35.55 154.09-28.08 158.19-27.83Q158.19-27.49 158.22-27.2 158.24-26.9 158.24-26.56L158.24-26.56Q158.24-25.2 158.02-23.9 157.8-22.61 157.46-21.29L157.46-21.29 153.9-21.29Q153.8-19.04 153.75-16.8 153.7-14.55 153.7-12.3L153.7-12.3Q153.7-11.23 153.77-10.38 153.85-9.52 154.16-8.94 154.48-8.35 155.21-8.06 155.95-7.76 157.27-7.76L157.27-7.76Q159.07-7.76 160.88-8.01 162.69-8.25 164.49-8.64ZM208.63-10.35L209.36-1.22Q203.55-0.78 197.81-0.39 192.07 0 186.26 0.34L186.26 0.34Q186.02-8.98 185.87-18.19 185.73-27.39 185.34-36.77L185.34-36.77Q188.61-36.82 191.78-36.96 194.96-37.11 198.18-37.35L198.18-37.35Q197.64-33.74 197.18-30.1 196.71-26.46 196.47-22.8L196.47-22.8Q196.27-19.73 196.15-16.67 196.03-13.62 195.93-10.55L195.93-10.55Q199.15-10.45 202.3-10.45 205.45-10.45 208.63-10.35L208.63-10.35ZM245.78-2.49L245.78-2.49 237.53-2.15 236.95-7.08Q236.02-5.81 234.72-4.93 233.43-4.05 231.94-3.52 230.45-2.98 228.86-2.76 227.28-2.54 225.76-2.54L225.76-2.54Q224.59-2.54 222.86-2.73 221.13-2.93 219.34-3.3 217.56-3.66 216.05-4.25 214.53-4.83 213.85-5.62L213.85-5.62Q213.31-6.2 213.04-7.5 212.78-8.79 212.68-10.25 212.58-11.72 212.58-13.09 212.58-14.45 212.58-15.28L212.58-15.28Q212.58-18.95 212.87-22.51 213.17-26.07 213.7-29.59L213.7-29.59Q215.07-29.74 216.63-29.74L216.63-29.74Q217.9-29.74 219.17-29.57 220.44-29.39 221.71-29.15L221.71-29.15Q221.71-28.91 221.76-27.73 221.81-26.56 221.88-24.95 221.96-23.34 222.05-21.51 222.15-19.68 222.27-18.12 222.39-16.55 222.57-15.45 222.74-14.36 222.93-14.26L222.93-14.26Q223.66-13.82 224.54-13.77 225.42-13.72 226.25-13.72L226.25-13.72Q226.84-13.72 228.08-13.79 229.33-13.87 230.65-14.04 231.96-14.21 233.09-14.48 234.21-14.75 234.6-15.14L234.6-15.14Q234.75-15.28 234.82-16.06 234.89-16.85 234.92-17.77 234.94-18.7 234.97-19.51 234.99-20.31 234.99-20.46L234.99-20.46Q234.99-22.66 234.89-24.8 234.8-26.95 234.7-29.15L234.7-29.15 244.17-29.59Q244.46-26.17 244.71-22.78 244.95-19.38 245.34-15.97L245.34-15.97Q245.49-14.84 245.51-13.67 245.54-12.5 245.59-11.33L245.59-11.33Q245.69-9.13 245.71-6.93 245.73-4.74 245.78-2.49ZM282.55-25.73L282.55-25.73Q282.55-23.49 281.96-21.39L281.96-21.39Q281.62-21.34 279.94-21.26 278.25-21.19 275.93-21.07 273.61-20.95 270.95-20.78 268.29-20.61 266.02-20.41 263.75-20.21 262.16-20 260.58-19.78 260.38-19.58L260.38-19.58Q259.6-18.9 259.21-17.92 258.82-16.94 258.82-15.97L258.82-15.97Q258.82-15.38 258.94-15.06 259.06-14.75 259.36-14.36L259.36-14.36Q259.5-14.21 260.38-14.11 261.26-14.01 262.33-13.96 263.41-13.92 264.34-13.89 265.26-13.87 265.41-13.87L265.41-13.87Q268.93-13.87 272.44-14.01 275.96-14.16 279.47-14.4L279.47-14.4 279.86-6.01Q274.98-5.62 270.07-5.25 265.17-4.88 260.23-4.88L260.23-4.88Q259.99-4.88 259.53-4.88 259.06-4.88 258.52-4.91 257.99-4.93 257.5-4.98 257.01-5.03 256.82-5.08L256.82-5.08Q255.79-5.37 254.79-5.74 253.79-6.1 252.91-6.67 252.03-7.23 251.37-8.01 250.71-8.79 250.42-9.91L250.42-9.91Q250.22-10.64 250.1-11.84 249.98-13.04 249.93-14.31 249.88-15.58 249.86-16.8 249.83-18.02 249.83-18.85L249.83-18.85Q249.83-20.75 249.88-22.41 249.93-24.07 250.42-25.46 250.91-26.86 252.01-27.95 253.11-29.05 255.16-29.88L255.16-29.88Q256.08-30.27 257.94-30.49 259.79-30.71 261.82-30.83 263.85-30.96 265.7-31.01 267.56-31.05 268.58-31.05L268.58-31.05Q272-31.05 275.4-30.91 278.79-30.76 282.21-30.52L282.21-30.52Q282.35-29.3 282.45-28.1 282.55-26.9 282.55-25.73ZM320.68-22.02L320.68-22.02Q320.68-17.92 320.39-13.87 320.09-9.81 319.8-5.76L319.8-5.76Q314.33-5.27 308.91-4.93 303.49-4.59 298.02-4.59L298.02-4.59Q297.54-4.59 296.22-4.61 294.9-4.64 293.43-4.71 291.97-4.79 290.65-4.91 289.33-5.03 288.89-5.27L288.89-5.27Q287.28-6.15 286.65-7.5 286.01-8.84 286.01-10.55L286.01-10.55Q286.01-11.13 286.06-12.11 286.11-13.09 286.26-14.16 286.4-15.23 286.65-16.16 286.89-17.09 287.23-17.53L287.23-17.53Q287.67-18.12 289.24-18.53 290.8-18.95 292.97-19.19 295.14-19.43 297.66-19.58 300.17-19.73 302.47-19.8 304.76-19.87 306.57-19.87 308.38-19.87 309.16-19.87L309.16-19.87Q309.3-20.95 309.3-21.97L309.3-21.97Q309.3-22.07 309.3-22.49 309.3-22.9 309.25-23L309.25-23Q309.11-23.29 308.33-23.49 307.55-23.68 306.4-23.78 305.25-23.88 303.91-23.95 302.57-24.02 301.3-24.02 300.03-24.02 299.05-24.02 298.07-24.02 297.63-24.02L297.63-24.02Q294.56-24.02 291.48-23.9 288.41-23.78 285.33-23.68L285.33-23.68Q285.52-25.54 285.65-27.44 285.77-29.35 285.67-31.2L285.67-31.2Q289.24-31.84 292.82-32.1 296.41-32.37 300.08-32.37L300.08-32.37Q301.39-32.37 302.96-32.35 304.52-32.32 306.08-32.25 307.64-32.18 309.18-32.03 310.72-31.88 312.04-31.64L312.04-31.64Q313.41-31.4 314.75-30.76 316.09-30.13 317.26-29.2 318.43-28.27 319.31-27.08 320.19-25.88 320.58-24.51L320.58-24.51Q320.63-24.37 320.66-24.02 320.68-23.68 320.68-23.27 320.68-22.85 320.68-22.51 320.68-22.17 320.68-22.02ZM309.79-10.55L309.79-10.55 309.79-16.8Q308.38-16.85 306.96-16.87 305.54-16.89 304.13-16.89L304.13-16.89Q303.83-16.89 302.49-16.87 301.15-16.85 299.61-16.75 298.07-16.65 296.8-16.5 295.53-16.36 295.34-16.06L295.34-16.06Q295.09-15.67 295.02-15.26 294.95-14.84 294.95-14.4L294.95-14.4Q294.95-14.06 295-13.48 295.05-12.89 295.17-12.26 295.29-11.62 295.44-11.08 295.58-10.55 295.83-10.3L295.83-10.3Q296.02-10.06 296.49-9.94 296.95-9.81 297.49-9.74 298.02-9.67 298.56-9.64 299.1-9.62 299.39-9.62L299.39-9.62Q300.56-9.62 301.91-9.72 303.25-9.81 304.64-9.94 306.03-10.06 307.35-10.23 308.67-10.4 309.79-10.55Z" opacity="1" transform="matrix(1,0,0,1,0,0)" fill="#1e55b3" class="wordmark-text-0" data-fill-palette-color="primary" id="text-0"></path></svg></g></svg></g><g transform="matrix(1,0,0,1,0,62.84755042326852)"><svg viewBox="0 0 142.5265776871298 29.815992858453072" height="29.815992858453072" width="142.5265776871298"><g transform="matrix(1,0,0,1,0,0)"><svg width="142.5265776871298" viewBox="2.2 -32.05 185.93 38.9" height="29.815992858453072" data-palette-color="#ff585f"><path d="M25.3-16.2L25.3-16.2Q25.3 0 12.5 0L12.5 0 2.2 0 2.2-31.05 12.7-31.05Q19.55-31.05 22.43-27.23 25.3-23.4 25.3-16.2ZM12.35-7.2Q15-7.2 15.78-9.08 16.55-10.95 16.55-15.38 16.55-19.8 15.73-21.65 14.9-23.5 12.2-23.5L12.2-23.5 10.7-23.5 10.7-7.2 12.35-7.2ZM37.8-17.4L37.8-17.4Q36.5-17.4 36.1-16.53 35.7-15.65 35.7-13.85L35.7-13.85 40.05-13.85 40.05-15.05Q40.05-17.4 37.8-17.4ZM38-24.55L38-24.55Q43.15-24.55 45.37-22.08 47.6-19.6 47.6-15L47.6-15Q47.6-14.4 47.25-9.6L47.25-9.6 35.85-9.6Q35.85-5.85 39.3-5.85L39.3-5.85Q40.95-5.85 45.75-7L45.75-7 46.45-0.8Q42.25 0.5 38.05 0.5L38.05 0.5Q32.9 0.5 30.15-2.88 27.4-6.25 27.4-12.05L27.4-12.05Q27.4-24.55 38-24.55ZM62.3-23.95L70.45-23.95 65.34 0 53.55 0 48.4-23.95 57.2-23.95 59.35-8.6 60-8.6 62.3-23.95ZM81.94-17.4L81.94-17.4Q80.64-17.4 80.24-16.53 79.84-15.65 79.84-13.85L79.84-13.85 84.19-13.85 84.19-15.05Q84.19-17.4 81.94-17.4ZM82.14-24.55L82.14-24.55Q87.29-24.55 89.52-22.08 91.74-19.6 91.74-15L91.74-15Q91.74-14.4 91.39-9.6L91.39-9.6 79.99-9.6Q79.99-5.85 83.44-5.85L83.44-5.85Q85.09-5.85 89.89-7L89.89-7 90.59-0.8Q86.39 0.5 82.19 0.5L82.19 0.5Q77.04 0.5 74.29-2.88 71.54-6.25 71.54-12.05L71.54-12.05Q71.54-24.55 82.14-24.55ZM94.04-5.5L94.04-5.5 94.04-32.05 102.29-32.05 102.29-8.15Q102.29-7.3 102.67-6.95 103.04-6.6 103.99-6.6L103.99-6.6 103.34 0.5 100.59 0.5Q97.29 0.5 95.67-0.88 94.04-2.25 94.04-5.5ZM105.29-12.08Q105.29-18.65 107.81-21.6 110.34-24.55 115.71-24.55 121.09-24.55 123.54-21.65 125.99-18.75 125.99-12.13 125.99-5.5 123.59-2.5 121.19 0.5 115.74 0.5 110.29 0.5 107.79-2.5 105.29-5.5 105.29-12.08ZM117.31-16.8Q116.99-17.8 115.69-17.8 114.39-17.8 114.04-16.8 113.69-15.8 113.69-12.6L113.69-12.6 113.69-11.4Q113.69-7.85 114.04-6.8 114.39-5.75 115.66-5.75 116.94-5.75 117.29-6.8 117.64-7.85 117.64-11.1L117.64-11.1 117.64-12.55Q117.64-15.8 117.31-16.8ZM137.19-0.55L136.99-0.55 136.99 6.85 128.59 6.85 128.59-23.95 135.49-23.95 135.99-22.45 136.24-22.45Q137.64-24.5 141.74-24.5 145.84-24.5 147.51-21.65 149.19-18.8 149.19-12.3 149.19-5.8 147.41-2.63 145.64 0.55 140.89 0.55L140.89 0.55Q138.69 0.55 137.19-0.55L137.19-0.55ZM140.51-7.53Q140.69-8.4 140.74-9.25 140.79-10.1 140.79-12.48 140.79-14.85 140.44-16.13 140.09-17.4 139.01-17.4 137.94-17.4 136.89-16.8L136.89-16.8 136.89-6.45Q137.84-6 138.71-6 139.59-6 139.96-6.33 140.34-6.65 140.51-7.53ZM161.88-17.4L161.88-17.4Q160.58-17.4 160.18-16.53 159.78-15.65 159.78-13.85L159.78-13.85 164.13-13.85 164.13-15.05Q164.13-17.4 161.88-17.4ZM162.08-24.55L162.08-24.55Q167.23-24.55 169.46-22.08 171.68-19.6 171.68-15L171.68-15Q171.68-14.4 171.33-9.6L171.33-9.6 159.93-9.6Q159.93-5.85 163.38-5.85L163.38-5.85Q165.03-5.85 169.83-7L169.83-7 170.53-0.8Q166.33 0.5 162.13 0.5L162.13 0.5Q156.98 0.5 154.23-2.88 151.48-6.25 151.48-12.05L151.48-12.05Q151.48-24.55 162.08-24.55ZM182.28-13.45L182.28-13.45 182.28 0 173.98 0 173.98-23.95 181.28-23.95 181.78-22.5 181.98-22.5Q183.13-23.8 184.31-24.18 185.48-24.55 188.13-24.55L188.13-24.55 187.78-16.55 185.48-16.55Q183.53-16.55 182.91-15.95 182.28-15.35 182.28-13.45Z" opacity="1" transform="matrix(1,0,0,1,0,0)" fill="#ff585f" class="slogan-text-1" data-fill-palette-color="secondary" id="text-1"></path></svg></g></svg></g></svg></g></svg></g><g><svg viewBox="0 0 245.65351679999995 164.7222650486612" height="164.7222650486612" width="245.65351679999995"><g><svg xmlns="http://www.w3.org/2000/svg" xmlns:xlink="http://www.w3.org/1999/xlink" version="1.1" x="0" y="0" viewBox="2.2 15.4 85.9 57.6" enable-background="new 0 0 90 90" xml:space="preserve" height="164.7222650486612" width="245.65351679999995" class="icon-icon-0" data-fill-palette-color="accent" id="icon-0"><g fill="#ff585f" data-fill-palette-color="accent"><path d="M6.6 25c0 1.4 1.1 2.5 2.5 2.5s2.5-1.1 2.5-2.5-1.1-2.5-2.5-2.5S6.6 23.6 6.6 25zM10.7 25c0 0.9-0.7 1.6-1.6 1.6-0.9 0-1.6-0.7-1.6-1.6 0-0.9 0.7-1.6 1.6-1.6C10 23.4 10.7 24.1 10.7 25z" fill="#ff585f" data-fill-palette-color="accent"></path><path d="M64.3 27.8H17.2v14.1h47.1V27.8zM63.4 41H18.1V28.7h45.3V41z" fill="#ff585f" data-fill-palette-color="accent"></path><path d="M17.2 53.3H30v-9.7H17.2V53.3zM18.1 44.5h10.9v7.9H18.1V44.5z" fill="#ff585f" data-fill-palette-color="accent"></path><rect x="32.9" y="44.2" width="31" height="0.9" fill="#ff585f" data-fill-palette-color="accent"></rect><rect x="32.9" y="46.6" width="31" height="0.9" fill="#ff585f" data-fill-palette-color="accent"></rect><rect x="32.9" y="49.1" width="31" height="0.9" fill="#ff585f" data-fill-palette-color="accent"></rect><rect x="32.9" y="51.6" width="18" height="0.9" fill="#ff585f" data-fill-palette-color="accent"></rect><rect x="27.8" y="70.5" width="26.1" height="2.5" fill="#ff585f" data-fill-palette-color="accent"></rect><path d="M4.1 20.5h73.5v10.9h1.8V20.5c0-2.8-2.3-5.1-5.1-5.1H7.3c-2.8 0-5.1 2.3-5.1 5.1v38c0 2.8 2.3 5.1 5.1 5.1h24.1L31 69.4h1.8l0.5-5.8h15.1l0.5 5.8h1.8l-0.5-5.8h15.9v-6H4.1V20.5z" fill="#ff585f" data-fill-palette-color="accent"></path><path d="M82.2 32.3h-9.2c-3.3 0-5.9 2.7-5.9 5.9v28.1c0 3.3 2.7 5.9 5.9 5.9h9.2c3.3 0 5.9-2.7 5.9-5.9V38.2C88.1 35 85.4 32.3 82.2 32.3zM68.2 64.8V38.6h18.7v26.2H68.2zM75.9 35.2h3.3c0.3 0 0.6 0.3 0.6 0.6s-0.3 0.6-0.6 0.6h-3.3c-0.3 0-0.6-0.3-0.6-0.6S75.5 35.2 75.9 35.2zM79.3 68c0 0.7-0.6 1.3-1.3 1.3h-0.7c-0.7 0-1.3-0.6-1.3-1.3V68c0-0.7 0.6-1.3 1.3-1.3h0.7C78.6 66.6 79.3 67.2 79.3 68L79.3 68z" fill="#ff585f" data-fill-palette-color="accent"></path><path d="M68.9 49.9h17.2v-6.7H68.9V49.9zM69.7 44h15.5v5H69.7V44z" fill="#ff585f" data-fill-palette-color="accent"></path><path d="M77.2 50.3h-8.4V57h8.4V50.3zM76.4 56.2h-6.6v-5h6.6V56.2z" fill="#ff585f" data-fill-palette-color="accent"></path><path d="M77.7 57h8.4v-6.7h-8.4V57zM78.6 51.2h6.6v5h-6.6V51.2z" fill="#ff585f" data-fill-palette-color="accent"></path><path d="M77.4 42.6c1 0 1.8-0.8 1.8-1.8S78.3 39 77.4 39s-1.8 0.8-1.8 1.8S76.4 42.6 77.4 42.6zM77.4 39.9c0.5 0 0.9 0.4 0.9 0.9s-0.4 0.9-0.9 0.9-0.9-0.4-0.9-0.9S76.8 39.9 77.4 39.9z" fill="#ff585f" data-fill-palette-color="accent"></path><rect x="68.9" y="57.9" width="17.2" height="0.9" fill="#ff585f" data-fill-palette-color="accent"></rect><rect x="68.9" y="59.6" width="17.2" height="0.9" fill="#ff585f" data-fill-palette-color="accent"></rect><rect x="68.9" y="61.2" width="17.2" height="0.9" fill="#ff585f" data-fill-palette-color="accent"></rect><rect x="68.9" y="62.8" width="10.1" height="0.9" fill="#ff585f" data-fill-palette-color="accent"></rect></g></svg></g></svg></g></svg></g></svg></g><defs></defs></svg><rect width="395.5199999999999" height="99.5368778797717" fill="none" stroke="none" visibility="hidden"></rect></g></svg></g></svg>